<svg xmlns="http://www.w3.org/2000/svg" viewBox="0 0 68 68"><defs><style>.cls-1{fill:#f1f1f2;}</style></defs><title>Asset 3</title><g id="Layer_2" data-name="Layer 2"><g id="Layer_1-2" data-name="Layer 1"><path class="cls-1" d="M34,0A34,34,0,1,0,68,34,34,34,0,0,0,34,0Z"/><path d="M45.4,25.9H22.6a1.5,1.5,0,0,1,0-3H45.5A1.54,1.54,0,0,1,47,24.4a1.56,1.56,0,0,1-1.6,1.5Zm0,9.6H22.6a1.5,1.5,0,0,1,0-3H45.5A1.54,1.54,0,0,1,47,34a1.56,1.56,0,0,1-1.6,1.5Zm0,9.6H22.6a1.5,1.5,0,0,1,0-3H45.5A1.54,1.54,0,0,1,47,43.6a1.56,1.56,0,0,1-1.6,1.5ZM34,3A31,31,0,1,0,65,34,31,31,0,0,0,34,3Z"/></g></g></svg>