<?xml version="1.0" encoding="UTF-8"?>
<svg width="100pt" height="100pt" version="1.1" viewBox="0 0 100 100" xmlns="http://www.w3.org/2000/svg">
 <path d="m12 17c-3.2891 0-6 2.7109-6 6v58c0 1.1055 0.89453 2 2 2h84c1.1055 0 2-0.89453 2-2v-58c0-3.2891-2.7109-6-6-6zm0 4h76c1.1445 0 2 0.85547 2 2v8h-80v-8c0-1.1445 0.85547-2 2-2zm3 3c-1.1055 0-2 0.89453-2 2s0.89453 2 2 2 2-0.89453 2-2-0.89453-2-2-2zm7 0c-1.1055 0-2 0.89453-2 2s0.89453 2 2 2 2-0.89453 2-2-0.89453-2-2-2zm7 0c-1.1055 0-2 0.89453-2 2s0.89453 2 2 2 2-0.89453 2-2-0.89453-2-2-2zm-19 11h80v44h-80zm45.75 4.9688c-0.72656 0.10156-1.3359 0.59375-1.5938 1.2812l-12 30c-0.27734 0.50391-0.32422 1.1016-0.13281 1.6406 0.19531 0.53906 0.60937 0.97266 1.1445 1.1836 0.53125 0.21094 1.1328 0.18359 1.6445-0.074219s0.88672-0.72656 1.0312-1.2812l12-30c0.27344-0.65625 0.17578-1.4102-0.25781-1.9766-0.42969-0.56641-1.1289-0.85938-1.8359-0.77344zm-19.938 5c-0.3125 0.035156-0.61328 0.14062-0.875 0.3125l-16 10c-0.58984 0.36328-0.95312 1.0078-0.95312 1.7031s0.36328 1.3398 0.95312 1.7031l16 10c0.94141 0.58203 2.1719 0.29297 2.7578-0.64453 0.58594-0.9375 0.30078-2.1719-0.63281-2.7617l-13.281-8.2812 13.281-8.3125c0.82812-0.47656 1.2031-1.4688 0.89844-2.3711-0.30078-0.90625-1.2031-1.4688-2.1484-1.3477zm28.094 0c-0.89062 0.023438-1.6562 0.63281-1.8828 1.4961-0.22266 0.85938 0.14844 1.7656 0.91406 2.2227l13.281 8.3125-13.281 8.2812c-0.93359 0.58984-1.2188 1.8242-0.63281 2.7617 0.58594 0.9375 1.8164 1.2266 2.7578 0.64453l16-10c0.58984-0.36328 0.95312-1.0078 0.95312-1.7031s-0.36328-1.3398-0.95312-1.7031l-16-10c-0.34375-0.21875-0.74609-0.32812-1.1562-0.3125z"/>
</svg>
