<?xml version="1.0" encoding="UTF-8"?>
<svg width="100pt" height="100pt" version="1.1" viewBox="0 0 100 100" xmlns="http://www.w3.org/2000/svg">
 <g>
  <path d="m80.992 9.6484c-0.94922 0-1.7188 0.76953-1.7188 1.7188v4.5664c-7.2891-6.0156-16.359-9.293-25.934-9.293-10.906 0-21.16 4.2461-28.867 11.961-0.67188 0.67188-0.67188 1.7617 0 2.4297 0.67188 0.67188 1.7578 0.67188 2.4297 0 7.0625-7.0625 16.449-10.953 26.438-10.953 8.4961 0 16.559 2.8281 23.125 8.0195h-3.9219c-0.95312 0-1.7188 0.76953-1.7188 1.7188 0 0.94922 0.76953 1.7188 1.7188 1.7188h8.4453c0.22266 0 0.44531-0.046875 0.65625-0.13281 0.42188-0.17578 0.75781-0.51172 0.93359-0.92969 0.085937-0.20703 0.12891-0.42188 0.12891-0.64062 0-0.007812 0.003907-0.011719 0.003907-0.019531v-8.4414c0-0.95312-0.76563-1.7227-1.7188-1.7227z"/>
  <path d="m5.4609 44.602c0.47656 0.82031 1.5273 1.1016 2.3477 0.62891l3.9531-2.2812c-1.5664 9.3203 0.13281 18.812 4.918 27.105 5.4531 9.4414 14.258 16.199 24.793 19.02 0.91406 0.24609 1.8594-0.29688 2.1055-1.2148s-0.30078-1.8594-1.2148-2.1055c-9.6445-2.5859-17.711-8.7695-22.703-17.422-4.25-7.3555-5.832-15.754-4.6211-24.035l1.9609 3.3945c0.47656 0.82422 1.5234 1.1055 2.3477 0.62891 0.82422-0.47656 1.1055-1.5234 0.63281-2.3516l-4.2266-7.3164c-0.10938-0.19141-0.26172-0.36328-0.44141-0.5-0.35938-0.27734-0.82031-0.39844-1.2734-0.33984-0.22266 0.027344-0.42969 0.10156-0.61719 0.20703-0.003906 0.003907-0.011719 0.003907-0.019531 0.007813l-7.3164 4.2227c-0.81641 0.47656-1.0977 1.5273-0.625 2.3516z"/>
  <path d="m72.852 92.496c0.47266-0.82031 0.19141-1.8711-0.63281-2.3477l-3.9531-2.2812c8.8555-3.3047 16.227-9.5195 21.016-17.812 5.4492-9.4453 6.8984-20.445 4.0742-30.98-0.24609-0.91406-1.1875-1.4609-2.1055-1.2148-0.91406 0.24609-1.4609 1.1875-1.2148 2.1055 2.5859 9.6445 1.2617 19.723-3.7344 28.371-4.2461 7.3555-10.73 12.93-18.508 16.02l1.9609-3.3945c0.47656-0.82422 0.19531-1.8711-0.62891-2.3477-0.82422-0.47656-1.8711-0.19531-2.3477 0.62891l-4.2266 7.3164c-0.10938 0.19141-0.17969 0.41016-0.21484 0.63281-0.058594 0.44922 0.0625 0.91016 0.33984 1.2695 0.13672 0.17578 0.30078 0.32031 0.48828 0.42969 0.007813 0.003906 0.007813 0.011719 0.015626 0.011719l7.3164 4.2266c0.82812 0.47266 1.8789 0.19141 2.3555-0.63281z"/>
 </g>
</svg>
