<?xml version="1.0" encoding="UTF-8"?>
<svg width="100pt" height="100pt" version="1.1" viewBox="0 0 100 100" xmlns="http://www.w3.org/2000/svg">
 <g>
  <path d="m90.773 5.25h-81.477c-2.3203 0-4.1484 1.7734-4.1484 4.0352v64.176c0 2.2578 1.8281 4.0312 4.1484 4.0312h81.477c2.3203 0 4.3359-1.7734 4.3359-4.0312v-64.176c0-2.2617-2.0156-4.0352-4.3359-4.0352zm-1.5078 54.457c0 1.6484-1.3203 3.1172-3.0195 3.1172h-72.422c-1.6992 0-3.0195-1.4688-3.0195-3.1172v-46.941c0-1.6484 1.3203-2.9336 3.0195-2.9336h72.422c1.6953 0 3.0195 1.2812 3.0195 2.9336z"/>
  <path d="m60.094 82.148c-0.30469-0.71094-1.0625-1.168-1.8516-1.3438-0.12891-0.066407-0.33984-0.14844-0.50391-0.17578h-0.17188l-15.297 0.003906c-0.14844 0-0.21875 0.11719-0.33594 0.17578-0.82031 0.14844-1.7031 0.59766-2.0156 1.3438l-4.707 11.434c-0.36328 0.85547 0.078124 1.5156 1.0078 1.5156l12.441-0.003906h15.297c0.92969 0 1.3711-0.65625 1.0117-1.5156z"/>
 </g>
</svg>
