<?xml version="1.0" encoding="UTF-8"?>
<svg width="100pt" height="100pt" version="1.1" viewBox="0 0 100 100" xmlns="http://www.w3.org/2000/svg">
 <g>
  <path d="m96.32 54.852c-0.74609 0.03125-1.8906-0.12891-2.4805-0.49219 2.5391-1.3398 4.1836-3.9844 4.1836-6.9258 0-4.3242-3.5195-7.8438-7.8438-7.8438-2.2852 0-4.3242 1-5.7617 2.5625v-35.199c0-0.57812-0.46875-1.0469-1.0469-1.0469h-73.426c-0.57812 0-1.0469 0.46875-1.0469 1.0469v25.551c-3.4766 0.65625-6.1172 3.7109-6.1172 7.375 0 2.6484 1.4023 5.0664 3.6289 6.4141-0.011718 0.015625-0.007812 0.03125-0.019531 0.046875-0.48438 0.46875-1.8984 0.625-2.8594 0.625-1.2227 0.13281-3.5312 1.2266-3.5312 4.418v6.3984c0.0078125 0.14844 0.085938 1.4648 1.1211 2.3086 0.34766 0.28125 0.90234 0.5625 1.6875 0.61719v19.68c0 0.57812 0.46875 1.0508 1.0469 1.0508s1.0508-0.46875 1.0508-1.0508v-12.305h9.9258v12.301c0 0.57813 0.46875 1.0508 1.0469 1.0508s1.0508-0.46875 1.0508-1.0508v-21.945h29.461c0.40234 0.33594 0.83203 0.62891 1.2969 0.87891-0.54297 0.40234-1.7656 0.54688-2.6953 0.55078-1.1992 0.14844-3.4609 1.2656-3.4609 4.4141v6.3672c0.003906 0.14844 0.050781 1.4766 1.0703 2.3242 0.37891 0.31641 0.99609 0.64844 1.9258 0.64844 0.015625 0 0.03125-0.003906 0.050781-0.003906v19.371c0 0.57812 0.46875 1.0508 1.0469 1.0508s1.0508-0.46875 1.0508-1.0508l-0.003906-12.297h9.6953v12.305c0 0.57812 0.46875 1.0508 1.0469 1.0508 0.57813 0 1.0508-0.46875 1.0508-1.0508v-19.387c0.8125-0.039063 1.3906-0.32422 1.75-0.60547 1.0625-0.82812 1.1992-2.1328 1.2148-2.3672v-5.4688c0.37109 0.22656 0.88672 0.41016 1.5742 0.41016 0.027344 0 0.0625-0.007813 0.09375-0.007813v17.039c0 0.57812 0.46875 1.0469 1.0508 1.0469 0.57812 0 1.0508-0.46875 1.0508-1.0469l-0.007813-10.82h9.7188v10.82c0 0.57812 0.46875 1.0469 1.0469 1.0469s1.0508-0.46875 1.0508-1.0469v-17.07c0.76172-0.058593 1.3359-0.30469 1.6875-0.57031 1.082-0.81641 1.2617-2.1172 1.2812-2.3789v-4.1484h0.20703c-0.039063 0.26562-0.078125 0.53516-0.078125 0.83984l0.003906 6.4219c0.011719 0.14453 0.12109 1.457 1.1719 2.2891 0.36328 0.28906 0.95312 0.58594 1.793 0.61719v19.195c0 0.57812 0.46875 1.0508 1.0508 1.0508 0.57812 0 1.0469-0.46875 1.0469-1.0508v-11.559h9.7695v11.559c0 0.57812 0.46875 1.0508 1.0508 1.0508 0.57812 0 1.0469-0.46875 1.0469-1.0508l-0.003906-12.613v-6.5781c0.88281-0.019531 1.4844-0.33594 1.8555-0.63672 1.0312-0.84375 1.1094-2.1641 1.1133-2.3477v-6.3555c-0.003906-3.1953-2.3164-4.2852-3.6836-4.4219zm-11.895-2.1133c0.57422 0.62891 1.25 1.1641 2.0078 1.582-0.4375 0.29297-1.2383 0.45313-2.0078 0.51172zm-68.18-3.0312c-0.082032-0.019531-0.16016-0.007812-0.23828-0.011719-0.042968-0.003906-0.078124-0.023437-0.125-0.023437-0.57812 0-1.0469 0.47266-1.0469 1.0547v15.262l-9.9297-0.003906v-12.301c0-0.57812-0.46875-1.0508-1.0508-1.0508-0.57812 0-1.0469 0.46875-1.0469 1.0508v4.9219c-0.14453-0.023438-0.26953-0.066407-0.35938-0.13672-0.30078-0.23828-0.35156-0.73047-0.35547-0.73047v-6.3516c0-2.0039 1.3945-2.2969 1.5117-2.3281 0.28125-0.007813 2.9297 0.054687 4.2383-1.2109 0.22656-0.21875 0.39062-0.47656 0.51562-0.74219 0.63281 0.16797 1.2734 0.28516 1.9336 0.28516 0.64844 0 1.2812-0.10938 1.8984-0.27344 0.125 0.24609 0.26953 0.48437 0.47656 0.6875 1.3125 1.2773 3.9688 1.2344 4.2344 1.2305 0.17969 0 4.0078-0.03125 5.3594-2.5547l1.1523 0.12891c-0.28125 1.0664-0.80859 1.8594-1.5977 2.4141-2.1445 1.5-5.5352 0.6875-5.5703 0.68359zm42.68 21.637c-0.11719 0.09375-0.27734 0.14453-0.46094 0.16797v-4.4805c0-0.57812-0.46875-1.0508-1.0508-1.0508-0.57812 0-1.0469 0.46875-1.0469 1.0508v11.559h-9.6953v-11.559c0-0.57812-0.46875-1.0508-1.0508-1.0508-0.57812 0-1.0469 0.46875-1.0469 1.0508v4.4805c-0.23047 0.007812-0.46484-0.011719-0.62109-0.14062-0.24609-0.19922-0.32031-0.62891-0.32422-0.73828v-6.3555c0-2.0078 1.3555-2.2969 1.4609-2.3281 0.29688-0.003907 2.8828 0.054687 4.1758-1.1953 0.19922-0.19141 0.33203-0.42188 0.45312-0.65625 0.53906 0.11719 1.0977 0.1875 1.6719 0.1875 0.53125 0 1.0547-0.054687 1.5586-0.15625 0.11719 0.21094 0.23438 0.42188 0.41406 0.59766 1.3008 1.2578 3.8398 1.2383 4.1914 1.2188 0.29687 0.035157 1.7773 0.32813 1.7773 2.332l0.003907 6.2656c0 0.007812-0.070313 0.53906-0.41016 0.80078zm1.1523-10.406c-0.77344-0.69922-1.7305-1.0156-2.4375-1.082-0.75781 0.035156-1.9961-0.13281-2.6055-0.51172 0.48438-0.25781 0.9375-0.55859 1.3555-0.91016h3.6875zm17.352 2.3555c-0.11328 0.089843-0.25781 0.14062-0.42578 0.17188v-4.5898c0-0.57812-0.46875-1.0508-1.0508-1.0508-0.57812 0-1.0469 0.46875-1.0469 1.0508v10.816h-9.7188l0.003906-10.816c0-0.57812-0.46875-1.0508-1.0508-1.0508-0.57812 0-1.0508 0.46875-1.0508 1.0508v4.5898c-0.23438 0.015625-0.47656 0-0.63281-0.12891-0.23047-0.19141-0.28516-0.61328-0.28906-0.74609v-6.3477c0-0.98828 0.31641-1.543 0.69531-1.8867 0.87891 0.85547 2.6289 1.6758 6.1055 1.9805 0 0 0.51953 0.078124 1.3203 0.078124h0.003907c1.5117 0 3.7109-0.26953 5.4805-1.4805 0.3125-0.14844 0.54687-0.46484 0.73047-0.91016 0.5625 0.21094 1.3633 0.76172 1.3633 2.2188l0.007812 6.2305c0.007812 0.003906-0.078125 0.54688-0.44531 0.82031zm3.7539-7.0938l-1.2188-0.03125c-0.03125-2.6133-1.6953-3.793-3.0742-4.1914 0.13672-2.1133-0.11719-5.3164-0.75391-9.4766 0-2.7461-1.5664-5.1133-3.8398-6.3242 0.003906-0.03125 0.019531-0.058593 0.019531-0.089843 0-0.57813-0.46875-1.0469-1.0508-1.0469l-19.645-0.003906c-0.57812 0-1.0508 0.46875-1.0508 1.0469s0.46875 1.0508 1.0508 1.0508h12.516c-0.85156 0.78516-1.4727 1.793-1.8281 2.9492h-10.688c-0.57812 0-1.0508 0.46875-1.0508 1.0469s0.46875 1.0508 1.0508 1.0508h10.344c0 0.015624-0.003906 0.027343-0.003906 0.039062l0.10937 10.109c-0.89453 0.52734-1.9922 1.6406-1.9922 3.9141v0.10156h-1.9219c0.66797-1.1523 1.0781-2.4727 1.0781-3.8945 0-4.3242-3.5195-7.8438-7.8398-7.8438-4.3242 0-7.8438 3.5195-7.8438 7.8438 0 1.4219 0.41016 2.7422 1.0781 3.8945h-27.699v-4.4023c0.41016 0.046875 0.87891 0.089844 1.4219 0.089844 1.4297 0 3.1953-0.26172 4.6602-1.2852 1.5352-1.0703 2.4336-2.7344 2.6758-4.9453 0.03125-0.27734-0.050781-0.55469-0.22656-0.76953-0.17578-0.21875-0.42969-0.35547-0.70313-0.38672l-3.0625-0.33594c-0.51172-0.050782-1.0039 0.28125-1.1289 0.78906-0.44531 1.7734-3.6328 1.8398-3.6914 1.8398-0.80078 0.046875-2.2188-0.16016-2.7227-0.625 2.2461-1.3438 3.6562-3.7695 3.6562-6.4336 0-3.9062-3.0039-7.0859-6.8164-7.4453l0.003906-24.43h71.332v47.297c-0.39844 0.21094-0.79297 0.50391-1.1445 0.89844zm16.719 9.3945c0 0.003906-0.046875 0.51562-0.34766 0.76172-0.12109 0.097656-0.30859 0.14062-0.52344 0.14844v-4.6641c0-0.57812-0.46875-1.0508-1.0469-1.0508s-1.0508 0.46875-1.0508 1.0508v12.301h-9.7695v-12.301c0-0.57812-0.46875-1.0508-1.0469-1.0508-0.57813 0-1.0508 0.46875-1.0508 1.0508v4.668c-0.19531-0.019531-0.35938-0.0625-0.48047-0.15625-0.3125-0.24219-0.38281-0.72656-0.39063-0.72656v-6.3477c0-2.0117 1.4375-2.2969 1.5703-2.3281 0.3125 0.003906 2.9805 0.050781 4.2969-1.2188 0.19531-0.19141 0.32812-0.41797 0.44922-0.64844 0.55078 0.12109 1.1055 0.19922 1.668 0.19922 0.51953 0 1.0352-0.066406 1.543-0.17188 0.12109 0.22266 0.24219 0.44141 0.4375 0.62891 1.3047 1.2617 3.9375 1.2188 4.0781 1.2031 0.066407 0.007813 1.6602 0.19922 1.6602 2.332z"/>
  <path d="m41.977 14.852h-21.809c-0.57812 0-1.0469 0.46875-1.0469 1.0508 0 0.57812 0.46875 1.0469 1.0469 1.0469h21.809c0.57813 0 1.0469-0.46875 1.0469-1.0469 0-0.58203-0.46875-1.0508-1.0469-1.0508z"/>
  <path d="m8.5938 73.469v6.793c0 0.57812 0.46875 1.0469 1.0508 1.0469 0.57812 0 1.0508-0.46875 1.0508-1.0469v-6.793c0-0.57812-0.46875-1.0508-1.0508-1.0508-0.58203 0.003906-1.0508 0.46875-1.0508 1.0508z"/>
  <path d="m50.512 86.25v6.793c0 0.57812 0.46875 1.0469 1.0469 1.0469s1.0508-0.46875 1.0508-1.0469v-6.793c0-0.57812-0.46875-1.0508-1.0508-1.0508-0.57812 0.003906-1.0469 0.47266-1.0469 1.0508z"/>
  <path d="m88.859 81.176v6.793c0 0.57812 0.46875 1.0469 1.0469 1.0469s1.0508-0.46875 1.0508-1.0469l-0.003906-6.793c0-0.57812-0.46875-1.0508-1.0508-1.0508-0.57422 0.003906-1.043 0.46875-1.043 1.0508z"/>
  <path d="m68.934 76.664v5.793c0 0.57812 0.47266 1.0469 1.0508 1.0469s1.0508-0.46875 1.0508-1.0469v-5.793c0-0.57812-0.46875-1.0508-1.0508-1.0508-0.58203 0.003907-1.0508 0.47266-1.0508 1.0508z"/>
  <path d="m20.168 21.996h15.32c0.57812 0 1.0508-0.46875 1.0508-1.0508 0-0.57812-0.46875-1.0469-1.0508-1.0469h-15.32c-0.57812 0-1.0469 0.46875-1.0469 1.0469-0.003906 0.58203 0.46484 1.0508 1.0469 1.0508z"/>
  <path d="m20.168 27.039h19.648c0.57812 0 1.0469-0.46875 1.0469-1.0508 0-0.57812-0.46875-1.0469-1.0469-1.0469l-19.648 0.003906c-0.57812 0-1.0469 0.46875-1.0469 1.0469-0.003906 0.57812 0.46484 1.0469 1.0469 1.0469z"/>
  <path d="m20.168 32.086h17.484c0.57812 0 1.0508-0.46875 1.0508-1.0508 0-0.57812-0.46875-1.0469-1.0508-1.0469h-17.484c-0.57812 0-1.0469 0.46875-1.0469 1.0469-0.003906 0.58203 0.46484 1.0508 1.0469 1.0508z"/>
  <path d="m20.168 37.133h19.648c0.57812 0 1.0469-0.46875 1.0469-1.0508 0-0.57812-0.46875-1.0469-1.0469-1.0469h-19.648c-0.57812 0-1.0469 0.46875-1.0469 1.0469-0.003906 0.58203 0.46484 1.0508 1.0469 1.0508z"/>
  <path d="m41.977 40.082h-21.809c-0.57812 0-1.0469 0.46875-1.0469 1.0469s0.46875 1.0508 1.0469 1.0508h21.809c0.57813 0 1.0469-0.46875 1.0469-1.0508 0-0.58203-0.46875-1.0469-1.0469-1.0469z"/>
  <path d="m73.434 14.852h-21.809c-0.57812 0-1.0508 0.46875-1.0508 1.0508 0 0.57812 0.46875 1.0469 1.0508 1.0469h21.809c0.57812 0 1.0469-0.46875 1.0469-1.0469 0-0.58203-0.46875-1.0508-1.0469-1.0508z"/>
  <path d="m51.621 21.996h15.32c0.57812 0 1.0508-0.46875 1.0508-1.0508 0-0.57812-0.46875-1.0469-1.0508-1.0469h-15.32c-0.57812 0-1.0508 0.46875-1.0508 1.0469 0.003907 0.58203 0.47266 1.0508 1.0508 1.0508z"/>
  <path d="m71.27 24.945h-19.648c-0.57812 0-1.0508 0.46875-1.0508 1.0469 0 0.57812 0.46875 1.0508 1.0508 1.0508h19.645c0.57812 0 1.0508-0.46875 1.0508-1.0508 0-0.57813-0.46875-1.0469-1.0469-1.0469z"/>
  <path d="m69.105 29.988h-17.484c-0.57812 0-1.0508 0.46875-1.0508 1.0469s0.46875 1.0508 1.0508 1.0508h17.484c0.57812 0 1.0508-0.46875 1.0508-1.0508 0-0.57812-0.46875-1.0469-1.0508-1.0469z"/>
 </g>
</svg>
