<?xml version="1.0" encoding="UTF-8"?>
<svg width="100pt" height="100pt" version="1.1" viewBox="0 0 100 100" xmlns="http://www.w3.org/2000/svg">
 <path d="m50 1c-27.102 0-49 21.898-49 49s21.898 49 49 49 49-21.898 49-49-21.898-49-49-49zm-26.5 28.699h52.898c0.39844 0 0.60156 0.60156 0.30078 0.80078l-26.398 22.102c-0.19922 0.10156-0.39844 0.10156-0.60156 0l-26.5-22.102c-0.30078-0.19922-0.097657-0.80078 0.30078-0.80078zm53.5 40.102c0 0.30078-0.19922 0.5-0.5 0.5h-53c-0.30078 0-0.5-0.19922-0.5-0.5v-36.801c0-0.39844 0.5-0.60156 0.80078-0.39844l25.898 21.5c0.19922 0.10156 0.39844 0.10156 0.60156 0l25.898-21.5c0.30078-0.19922 0.80078 0 0.80078 0.39844z"/>
</svg>
