<?xml version="1.0" encoding="UTF-8"?>
<svg width="100pt" height="100pt" version="1.1" viewBox="0 0 100 100" xmlns="http://www.w3.org/2000/svg">
 <path d="m50 5c-24.852 0-45 20.145-45 44.996 0 24.852 20.148 45 45 45 24.855 0 45-20.148 45-45 0-24.852-20.145-44.996-45-44.996zm24.172 66.023l-3.6523 3.6641c-0.66797 0.64844-2.5742 1.0664-2.6484 1.0664-11.582 0.10156-22.738-4.4609-30.949-12.672-8.2344-8.2266-12.812-19.434-12.668-31.066 0-0.011719 0.41797-1.8594 1.0547-2.5117l3.6914-3.6641c1.3203-1.3438 3.9219-1.9688 5.7188-1.3516l0.77344 0.24609c1.7891 0.62109 3.6797 2.6016 4.1719 4.4414l1.8555 6.7578c0.48828 1.8438-0.18359 4.4609-1.5195 5.8008l-2.4414 2.4492c2.4023 8.8906 9.375 15.883 18.262 18.281l2.4688-2.4414c1.3359-1.3516 3.957-2.0234 5.7891-1.5234l6.7734 1.8438c1.8359 0.50781 3.8086 2.3828 4.4062 4.1953l0.26953 0.78125c0.59375 1.7891 0 4.3633-1.3555 5.7031z"/>
</svg>
