<?xml version="1.0" encoding="UTF-8"?>
<svg width="100pt" height="100pt" version="1.1" viewBox="0 0 100 100" xmlns="http://www.w3.org/2000/svg">
 <path d="m53.125 11.586c21.574 0 39.062 17.488 39.062 39.062 0 21.574-17.488 39.062-39.062 39.062s-39.062-17.488-39.062-39.062c0-21.574 17.488-39.062 39.062-39.062zm-22.68 39.133c-2.0547-0.40234-4.0508 0.94141-4.4492 2.9961-0.40234 2.0547 0.94141 4.0508 2.9961 4.4492 1.2031 0.23828 2.7812 1.5664 4.4453 3.4492 2.3359 2.6484 4.5781 6.2266 6.2773 9.6797l-0.007813 0.003906c0.92578 1.8789 3.2031 2.6523 5.082 1.7305 0.69531-0.34375 1.2383-0.87109 1.6016-1.4922 3.9609-6.4258 8.5078-12.648 13.742-18.617 5.2891-6.0273 11.309-11.844 18.176-17.41 1.6211-1.3164 1.8672-3.7031 0.55078-5.3242s-3.7031-1.8672-5.3242-0.55078c-7.2031 5.8398-13.531 11.953-19.098 18.301-4.1133 4.6836-7.7969 9.4805-11.109 14.363-1.3125-2.0547-2.7461-4.0156-4.2266-5.6953-2.6953-3.0547-5.6758-5.293-8.6562-5.8789z" fill-rule="evenodd"/>
</svg>
