<?xml version="1.0" encoding="UTF-8"?>
<svg width="100pt" height="100pt" version="1.1" viewBox="0 0 100 100" xmlns="http://www.w3.org/2000/svg">
 <g>
  <path d="m41.77 92.051l-2.8516-6c-0.48047-1-1-2-1.4297-2.9219-0.26172-0.51953-0.44922-0.85938-0.57812-1.0703-0.25 0-0.55078 0-0.91016 0.070312h-0.51172c-1.0234 0.12891-2.0547 0.19141-3.0898 0.19141-1.3984 0-2.6992-0.10937-4.0781-0.23047h-0.17187c-2.2344-0.12891-4.3164-1.1797-5.7461-2.9062-1.4297-1.7227-2.0781-3.9609-1.793-6.1836 0.11328-0.77734-0.042969-1.5703-0.4375-2.25-0.39844-0.76562-0.73438-1.5586-1-2.3789l-0.10156-0.42188-0.55078-3v-0.058594c-1.4688-0.77344-2.6406-2.0156-3.3281-3.5312-0.86719-2.2656-0.71094-4.7969 0.42969-6.9375 0.28125-0.58984 0.57812-1.1602 0.85156-1.6797 0.16016-0.30078 0.30859-0.57813 0.44141-0.85156l0.089844-0.17188h-0.003906c0.47656-0.76562 0.87891-1.5742 1.1992-2.418 0.10938-0.32812 0.19141-0.66016 0.24219-1-2.8008-8.7109-1.1289-16.691 5-23.738 5.75-6.5625 15.449-10.641 25.258-10.641v3c-9 0-17.809 3.6797-23 9.6094-5.4609 6.3203-6.8711 13.199-4.3008 21 0.070312 0.21875 0.28125 0.82812-0.30078 2.6719l0.003906-0.003906c-0.37109 1.0156-0.83984 1.9883-1.4023 2.9102l-0.058594 0.10938c-0.10938 0.21875-0.26953 0.53125-0.44141 0.85156-0.26172 0.48047-0.53125 1-0.78125 1.5391h0.003906c-0.75391 1.375-0.90625 3-0.42188 4.4922 0.53125 1.0742 1.4414 1.9141 2.5586 2.3477l0.67188 0.30078 0.17969 0.71094c0.046875 0.19141 0.078125 0.38281 0.10156 0.57812v0.26953l0.58984 3.1992v0.003907c0.19531 0.62109 0.4375 1.2266 0.72656 1.8086 0.66797 1.1875 0.93359 2.5586 0.76172 3.9102-0.22656 1.4336 0.17188 2.8984 1.0938 4.0195 0.92578 1.125 2.2852 1.7969 3.7383 1.8516h0.16016-0.003906c2.1953 0.24609 4.4062 0.26172 6.6016 0.046876h0.55859c0.74219-0.10938 1.4922-0.10938 2.2305 0 0.82812 0.14844 1.3594 0.94922 2.1992 2.6211 0.5 1 1 2 1.4688 3l1.5117 3.1914 26.07-13.602-0.62891-2.8594c-0.10156-0.40234-0.17969-0.80859-0.23047-1.2188-0.28906-2.5586 0.12109-5.1484 1.1797-7.4922l0.37109-0.92187 2.7812 1.1328-0.35938 0.91016h-0.003906c-0.86328 1.8516-1.207 3.9062-1 5.9414 0.035156 0.33594 0.09375 0.67188 0.18359 1l0.078125 0.37109 1.0586 4.7773zm-23.27-43.57z"/>
  <path d="m49.609 44.289c-3.0938 0-5.8828 1.8633-7.0664 4.7227-1.1836 2.8594-0.53125 6.1484 1.6562 8.3359 2.1875 2.1914 5.4805 2.8438 8.3398 1.6602 2.8555-1.1836 4.7227-3.9727 4.7227-7.0664 0-4.2266-3.4258-7.6523-7.6523-7.6523zm0 12.289c-1.8789 0-3.5742-1.1328-4.2969-2.8672-0.71875-1.7383-0.32031-3.7383 1.0078-5.0703 1.332-1.3281 3.332-1.7266 5.0703-1.0078 1.7383 0.72266 2.8711 2.418 2.8711 4.2969 0 2.5703-2.082 4.6484-4.6523 4.6484z"/>
  <path d="m85.34 27.828v-6.2891l-4.7305-1.3789c-0.085937-0.21875-0.17969-0.4375-0.28125-0.64844l2.2695-4.1406-4.4492-4.4492-4.1484 2.3086c-0.27344-0.12109-0.55078-0.23047-0.82812-0.32812l-1.3203-4.4023h-6.293l-1.2969 4.5c-0.3125 0.125-0.625 0.26172-0.94141 0.41016l-3.9219-2.1719-4.4492 4.4492 2.25 4.1016c-0.13281 0.3125-0.25391 0.62891-0.35938 0.94922l-4.3203 1.2617v6.2891l4.5898 1.3398c0.11328 0.27344 0.23438 0.53906 0.35938 0.80078l-2.2109 4 2.3594 2.3594-1.7109 0.94141c-0.44141-0.19922-0.89844-0.37891-1.3594-0.53906l-1.5469-5.4102h-7.3008l-1.6289 5.5195c-0.51172 0.19141-1.0117 0.41406-1.5 0.66016l-4.832-2.6602-5.1602 5.1602 2.7695 5h0.003906c-0.22266 0.5-0.41406 1.0156-0.58203 1.5391l-5.3086 1.5508v7.3008l5.6484 1.6406c0.17969 0.44531 0.37891 0.88672 0.60156 1.3203l-2.7109 4.9883 5.1406 5.1992 5.3281-3c0.375 0.16016 0.75 0.30469 1.1289 0.42969l1.6406 5.6211h7.3008l1.7383-6c0.33203-0.13281 0.66797-0.27734 1-0.42969l5.2305 2.8711 5.1602-5.1602-3-5.4492c0.14062-0.32812 0.26953-0.66016 0.39062-1l5.7188-1.6719 0.003906-7.2109-5.8281-1.6992c-0.14844-0.38672-0.30859-0.76562-0.48047-1.1406l2.4102-4.3906 0.16016 0.53906h6.2578l1.4102-4.8516 0.51172-0.23047 4.25 2.3281 4.4492-4.4414-2.4336-4.4141c0.074219-0.17188 0.14453-0.34766 0.21094-0.51953zm-18.578 22.422v2.8008l-5.1094 1.4883-0.23047 0.78906c-0.21094 0.69141-0.47656 1.3594-0.80078 2l-0.35156 0.69922 2.6484 4.8281-2 2-4.6914-2.5703-0.73047 0.39844 0.003906 0.007812c-0.64062 0.35156-1.3086 0.64453-2 0.87891l-0.73047 0.25-1.5312 5.2695h-2.8008l-1.4375-5.0898-0.80859-0.21875c-0.74219-0.19922-1.4609-0.46875-2.1523-0.80078l-0.69922-0.33984-4.6914 2.5781-2-2 2.4492-4.4609-0.42969-0.73047 0.003906 0.003906c-0.41016-0.72266-0.74609-1.4844-1-2.2695l-0.25-0.73828-5-1.4414v-2.8008l4.75-1.3789 0.21875-0.82031v-0.003906c0.22266-0.85156 0.53906-1.6797 0.9375-2.4688l0.35938-0.71094-2.3984-4.3984 2-2 4.3086 2.3594 0.73047-0.42188v0.003906c0.77344-0.44531 1.5859-0.80078 2.4336-1.0703l0.76953-0.23828 1.4219-4.8711h2.8008l1.3984 4.8086 0.78906 0.23047c0.80469 0.23438 1.5859 0.54688 2.3281 0.9375l0.71094 0.37891 4.5781-2.5117 2 2-2.5586 4.5234 0.39062 0.71875v0.003906c0.38281 0.68359 0.69922 1.4023 0.94922 2.1484l0.23828 0.76172zm-3.5898-13.25l0.87891-0.48047 0.64062 0.23828 0.71875 2.4805zm16-3.3984l-1.2617 1.2617-3.6992-2-0.73047 0.39844c-0.48828 0.26953-1 0.49609-1.5312 0.67969l-0.73047 0.25-1.2188 4.1289h-1.7383l-1.1602-4-0.80859-0.21875h-0.003907c-0.57031-0.15625-1.125-0.36328-1.6602-0.62109l-0.69922-0.33984-3.6914 2-1.2383-1.2188 1.9297-3.5195-0.42969-0.73047c-0.32422-0.55859-0.59375-1.1484-0.80078-1.7617l-0.25-0.73828-3.9297-1.1719v-1.7617l3.75-1.0898 0.21875-0.82031c0.17578-0.66016 0.42188-1.3008 0.73047-1.9062l0.35938-0.71094-1.9219-3.4883 1.2656-1.2227 3.3906 1.8594 0.6875-0.46094c0.59766-0.33984 1.2305-0.62109 1.8906-0.82813l0.76953-0.23828 1.1094-3.8281 1.832-0.003906 1.1016 3.7891 0.78906 0.23047h-0.003907c0.62891 0.17969 1.2344 0.41797 1.8125 0.71875l0.71094 0.37891 3.6016-2 1.2617 1.2617-2 3.5703 0.39062 0.71875-0.003906 0.003906c0.28125 0.52734 0.51562 1.0859 0.69922 1.6562l0.23828 0.76172 4.0703 1.1914v1.7891l-4 1.1719-0.23047 0.78125v-0.003907c-0.16016 0.53906-0.36719 1.0586-0.61719 1.5586l-0.35156 0.69922z"/>
  <path d="m68.93 18.5c-2.5938 0-4.9297 1.5625-5.9219 3.957-0.99219 2.3945-0.44531 5.1523 1.3906 6.9844 1.832 1.8359 4.5898 2.3828 6.9844 1.3906 2.3945-0.99219 3.957-3.3281 3.957-5.9219-0.003906-3.5391-2.8711-6.4062-6.4102-6.4102zm0 9.8281c-1.3789 0-2.6211-0.82812-3.1484-2.1016-0.53125-1.2773-0.23828-2.7422 0.73828-3.7188 0.97266-0.97266 2.4414-1.2656 3.7148-0.73828 1.2734 0.52734 2.1055 1.7695 2.1055 3.1523-0.011719 1.875-1.5312 3.3945-3.4102 3.3984z"/>
 </g>
</svg>
