<?xml version="1.0" encoding="UTF-8"?>
<svg fill="#FFFFFF" width="100pt" height="100pt" version="1.1" viewBox="0 0 100 100" xmlns="http://www.w3.org/2000/svg">
 <path d="m42.203 10.492c-10.699 2.125-19.84 8.5391-25.652 17.363h14.703c2.5195-7.8672 6.3789-14.031 10.949-17.363zm15.59 0c4.5703 3.332 8.3984 9.4961 10.949 17.363h14.668c-5.7734-8.8242-14.949-15.238-25.613-17.363zm-5.8125 1.4883v15.875h12.863c-2.8672-8.5742-7.3672-14.707-12.859-15.875zm-4 0.035156c-5.3867 1.2773-9.8164 7.3359-12.648 15.84h12.648zm-33.77 19.879c-2.4414 4.8906-3.9297 10.309-4.2148 16.086h18c0.14062-5.7383 0.88672-11.16 2.125-16.086zm19.984 0c-1.2383 4.8906-1.9492 10.383-2.0898 16.086h15.875v-16.086zm17.789 0v16.086h16.086c-0.14062-5.7031-0.85156-11.195-2.0898-16.086zm17.895 0c1.2031 4.9258 1.9844 10.348 2.125 16.086h18c-0.28516-5.7773-1.7734-11.195-4.2148-16.086zm-59.883 20.125c0.28516 5.7773 1.7734 11.23 4.2148 16.086h15.875c-1.2031-4.8906-1.9492-10.344-2.0898-16.086zm22.109 0c0.14062 5.7383 0.85156 11.195 2.0898 16.086h13.785v-16.086zm19.879 0v16.086h13.996c1.2383-4.8906 1.9844-10.348 2.0898-16.086zm20.02 0c-0.14062 5.7383-0.88672 11.195-2.0898 16.086h15.875c2.4453-4.8555 3.9336-10.312 4.2148-16.086zm-55.453 20.125c5.7773 8.8242 14.918 15.238 25.582 17.363-4.5352-3.332-8.3594-9.4961-10.875-17.363h-14.703zm18.781 0c2.8359 8.5391 7.2266 14.633 12.648 15.875v-15.875zm16.652 0v15.91c5.5273-1.168 10.027-7.2969 12.863-15.91zm16.762 0c-2.5156 7.8672-6.3438 14.031-10.879 17.363 10.664-2.125 19.809-8.5391 25.582-17.363z"/>
</svg>
