<?xml version="1.0" encoding="UTF-8"?>
<svg width="100pt" height="100pt" version="1.1" viewBox="0 0 100 100" xmlns="http://www.w3.org/2000/svg">
 <g>
  <path d="m18.898 95.199h62.301c2.8008 0 5-2.1992 5-5v-80.398c0-2.8008-2.1992-5-5-5h-62.301c-2.8008 0-5 2.1992-5 5v80.398c0 2.8008 2.2031 5 5 5zm-3-85.398c0-1.6992 1.3008-3 3-3h62.301c1.6992 0 3 1.3008 3 3v80.398c0 1.6992-1.3008 3-3 3h-62.301c-1.6992 0-3-1.3008-3-3z"/>
  <path d="m79 12h-58v14.801h58zm-2 12.801h-54v-10.801h54z"/>
  <path d="m47.398 31.898h-26.398v26.898h26.398zm-2 2v9.8008l-2.8984-2.8984-7.6992 7.6992-4.1016-4.1016-7.6992 7.6016v-18.102zm-22.398 21l7.6992-7.6992 4.1016 4.1016 7.6992-7.6992 2.8984 2.8984v10.301h-22.398zm-1-0.39844z"/>
  <path d="m28.301 43.199c2 0 3.6992-1.6992 3.6992-3.6992s-1.6992-3.6992-3.6992-3.6992-3.6992 1.6992-3.6992 3.6992 1.6992 3.6992 3.6992 3.6992zm0-5.3984c0.89844 0 1.6992 0.80078 1.6992 1.6992s-0.80078 1.6992-1.6992 1.6992c-0.89844 0-1.6992-0.80078-1.6992-1.6992s0.79688-1.6992 1.6992-1.6992z"/>
  <path d="m52.602 58.898h26.398v-27h-26.398zm24.398-25v9.8008l-2.8984-2.8984-7.6992 7.6992-4.1016-4.1016-7.6992 7.6016v-18.102zm-22.398 21l7.6992-7.6992 4.1016 4.1016 7.6992-7.6992 2.8984 2.8984v10.301h-22.398z"/>
  <path d="m59.898 43.199c2 0 3.6992-1.6992 3.6992-3.6992s-1.6992-3.6992-3.6992-3.6992-3.6992 1.6992-3.6992 3.6992 1.6016 3.6992 3.6992 3.6992zm0-5.3984c0.89844 0 1.6992 0.80078 1.6992 1.6992s-0.80078 1.6992-1.6992 1.6992c-0.89844 0-1.6992-0.80078-1.6992-1.6992s0.69922-1.6992 1.6992-1.6992z"/>
  <path d="m79 64h-58v24h58zm-2 22h-54v-20h54z"/>
  <path d="m45.301 69.602v13l11.199-6.6016zm2 3.3984l5.1992 3-5.1992 3z"/>
 </g>
</svg>
