<!-- Generator: Adobe Illustrator 22.1.0, SVG Export Plug-In  -->
<svg version="1.1"
	 xmlns="http://www.w3.org/2000/svg" xmlns:xlink="http://www.w3.org/1999/xlink" xmlns:a="http://ns.adobe.com/AdobeSVGViewerExtensions/3.0/"
	 x="0px" y="0px" width="97.036px" height="100.77px" viewBox="0 0 97.036 100.77"
	 style="enable-background:new 0 0 97.036 100.77;" xml:space="preserve">
<style type="text/css">
	.st0{fill:#FFFFFF;}
</style>
<defs>
</defs>
<g>
	<path d="M8.861,16.54c-2.394,0-4.334,1.94-4.334,4.334s1.94,4.334,4.334,4.334s4.334-1.94,4.334-4.334
		C13.192,18.48,11.255,16.54,8.861,16.54z M8.861,23.04c-1.193,0-2.168-0.975-2.168-2.166s0.975-2.166,2.166-2.166
		s2.166,0.975,2.166,2.166C11.026,22.065,10.051,23.04,8.861,23.04z"/>
	<path d="M22.942,20.874c0-2.394-1.94-4.334-4.334-4.334s-4.334,1.94-4.334,4.334s1.94,4.334,4.334,4.334
		C21.005,25.206,22.942,23.269,22.942,20.874z M16.442,20.874c0-1.191,0.975-2.166,2.166-2.166c1.191,0,2.166,0.975,2.166,2.166
		s-0.975,2.166-2.166,2.166C17.417,23.04,16.442,22.065,16.442,20.874z"/>
	<path d="M28.361,25.206c2.394,0,4.334-1.94,4.334-4.334s-1.94-4.334-4.334-4.334s-4.334,1.94-4.334,4.334
		C24.026,23.269,25.966,25.206,28.361,25.206z M28.361,18.706c1.191,0,2.166,0.975,2.166,2.166s-0.975,2.166-2.166,2.166
		c-1.191,0-2.166-0.975-2.166-2.166C26.192,19.681,27.167,18.706,28.361,18.706z"/>
	<path d="M1.276,13.29v76.412h66.543V13.29H1.276z M3.494,15.836h62.106v12.736H3.494L3.494,15.836z M3.494,87.156V31.118h11.091
		v56.034L3.494,87.156z M65.602,87.156h-48.8V31.118h48.797L65.602,87.156z"/>
	<path d="M11.026,32.79H6.692c-0.597,0-1.084,0.488-1.084,1.084s0.488,1.084,1.084,1.084h4.334c0.597,0,1.084-0.487,1.084-1.084
		S11.623,32.79,11.026,32.79z"/>
	<path d="M11.026,38.206H6.692c-0.597,0-1.084,0.487-1.084,1.084c0,0.597,0.488,1.084,1.084,1.084h4.334
		c0.597,0,1.084-0.487,1.084-1.084C12.111,38.693,11.623,38.206,11.026,38.206z"/>
	<path d="M11.026,43.624H6.692c-0.597,0-1.084,0.487-1.084,1.084c0,0.597,0.488,1.084,1.084,1.084h4.334
		c0.597,0,1.084-0.488,1.084-1.084C12.111,44.112,11.623,43.624,11.026,43.624z"/>
	<path d="M11.026,49.04H6.692c-0.597,0-1.084,0.488-1.084,1.084s0.488,1.084,1.084,1.084h4.334c0.597,0,1.084-0.487,1.084-1.084
		S11.623,49.04,11.026,49.04z"/>
	<path d="M11.026,54.456H6.692c-0.597,0-1.084,0.487-1.084,1.084c0,0.597,0.488,1.084,1.084,1.084h4.334
		c0.597,0,1.084-0.487,1.084-1.084C12.111,54.943,11.623,54.456,11.026,54.456z"/>
	<path d="M11.026,59.874H6.692c-0.597,0-1.084,0.487-1.084,1.084c0,0.597,0.488,1.084,1.084,1.084h4.334
		c0.597,0,1.084-0.488,1.084-1.084C12.111,60.362,11.623,59.874,11.026,59.874z"/>
	<path d="M11.026,65.29H6.692c-0.597,0-1.084,0.488-1.084,1.084c0,0.597,0.488,1.084,1.084,1.084h4.334
		c0.597,0,1.084-0.488,1.084-1.084C12.111,65.778,11.623,65.29,11.026,65.29z"/>
	<path d="M11.026,70.706H6.692c-0.597,0-1.084,0.488-1.084,1.084c0,0.597,0.488,1.084,1.084,1.084h4.334
		c0.597,0,1.084-0.487,1.084-1.084C12.111,71.193,11.623,70.706,11.026,70.706z"/>
	<path d="M38.111,32.79H20.776v17.334h17.334V32.79z M30.526,47.956c0-0.597-0.487-1.084-1.084-1.084
		c-0.597,0-1.084,0.487-1.084,1.084h-4.334c0-0.597-0.488-1.084-1.084-1.084v-4.334c0.597,0,1.084-0.487,1.084-1.084
		s-0.488-1.084-1.084-1.084v-4.334c0.597,0,1.084-0.487,1.084-1.084h4.334c0,0.597,0.488,1.084,1.084,1.084
		c0.597,0,1.084-0.487,1.084-1.084h4.334c0,0.597,0.487,1.084,1.084,1.084v4.334c-0.597,0-1.084,0.488-1.084,1.084
		s0.487,1.084,1.084,1.084v4.334c-0.597,0-1.084,0.487-1.084,1.084H30.526z"/>
	<path d="M59.776,32.79H42.442v17.334h17.334V32.79z M57.611,47.956h-13v-13h13V47.956z"/>
	<path d="M38.111,71.79V54.456H20.776V71.79H38.111z M22.942,56.624h13v13h-13V56.624z"/>
	<path d="M59.776,54.456H42.442V71.79h17.334V54.456z M57.611,69.624h-13v-13h13V69.624z"/>
	<path d="M33.776,38.206c0,1.445-2.166,1.445-2.166,0S33.776,36.761,33.776,38.206"/>
	<path d="M30.526,41.456c0,1.445-2.166,1.445-2.166,0S30.526,40.011,30.526,41.456"/>
	<path d="M33.776,44.706c0,1.445-2.166,1.445-2.166,0S33.776,43.261,33.776,44.706"/>
	<path d="M27.276,38.206c0,1.445-2.166,1.445-2.166,0S27.276,36.761,27.276,38.206"/>
	<path d="M27.276,44.706c0,1.445-2.166,1.445-2.166,0S27.276,43.261,27.276,44.706"/>
</g>
<g>
	<path class="st0" d="M92.266,71.7L92.266,71.7c0-0.309-0.153-0.461-0.153-0.77c-0.309-1.23-0.617-2.769-2.152-4.922
		c-1.539-2.309-5.848-6.152-6.309-6.461L79.5,55.395c-1.383-1.383-3.848-1.383-5.231,0c-0.309,0.309-0.617,0.77-0.77,1.383
		c-1.383-0.77-3.078-0.461-4.309,0.617c-0.461,0.461-0.77,1.078-0.922,1.848c-1.23-0.309-2.461,0.152-3.383,0.922
		c-0.309,0.309-0.617,0.77-0.77,1.078l-2.313-2.465c-1.383-1.383-3.848-1.383-5.23,0c-0.617,0.617-1.078,1.539-1.078,2.617
		c0,0.922,0.309,1.848,1.078,2.617l8.461,8.461c-0.461,0.152-0.77,0.461-1.078,0.77c-0.617,0.617-1.078,1.539-1.078,2.617
		c0,0.922,0.309,1.848,1.078,2.617l4.769,4.77l0.309,0.309c1.848,1.691,4.309,2.461,6.77,2c1.23-0.152,2.461,0.152,3.383,1.078
		l4.461,4.461l13.387-14.004C94.883,75.087,92.575,72.317,92.266,71.7z"/>
	<path d="M91.535,71.691c0-0.309-0.152-0.461-0.152-0.77c-0.309-1.23-0.617-2.77-2.152-4.922c-1.539-2.309-5.848-6.152-6.309-6.461
		l-4.152-4.152c-1.383-1.383-3.848-1.383-5.23,0c-0.309,0.309-0.617,0.77-0.77,1.383c-1.383-0.77-3.078-0.461-4.309,0.617
		c-0.461,0.461-0.77,1.078-0.922,1.848c-1.23-0.309-2.461,0.152-3.383,0.922c-0.309,0.309-0.617,0.77-0.77,1.078l-2.312-2.465
		c-1.383-1.383-3.848-1.383-5.23,0c-0.617,0.617-1.078,1.539-1.078,2.617c0,0.922,0.309,1.848,1.078,2.617l8.461,8.461
		c-0.461,0.152-0.77,0.461-1.078,0.77c-0.617,0.617-1.078,1.539-1.078,2.617c0,0.922,0.309,1.848,1.078,2.617l4.77,4.77l0.309,0.309
		c1.848,1.691,4.309,2.461,6.77,2c1.23-0.152,2.461,0.152,3.383,1.078l4.461,4.461l1.691-1.691l-4.461-4.461
		c-1.383-1.383-3.383-2-5.383-1.691c-1.848,0.309-3.691-0.309-4.922-1.539l-4.77-4.77c-0.309-0.309-0.461-0.617-0.461-0.922
		c0-0.309,0.152-0.77,0.461-0.922c0.461-0.461,1.383-0.461,1.848,0l2.77,2.77l1.691-1.691l-2.77-2.77
		c-0.152-0.152-0.309-0.309-0.461-0.309L57.692,62.629c-0.309-0.309-0.461-0.617-0.461-0.922c0-0.309,0.152-0.77,0.461-0.922
		c0.461-0.461,1.383-0.461,1.848,0L70,71.246l1.691-1.691L66,63.863c-0.461-0.461-0.461-1.383,0-1.848
		c0.461-0.461,1.383-0.461,1.848,0l0.77,0.77l4.617,4.617l1.691-1.691l-4.613-4.613c-0.461-0.461-0.461-1.383,0-1.848
		c0.461-0.461,1.383-0.461,1.848,0l1.539,1.539l4.156,4.156l1.691-1.691l-1.383-1.383l-2.781-3.102
		c-0.309-0.309-0.461-0.617-0.461-0.922c0-0.309,0.152-0.77,0.461-0.922c0.461-0.461,1.383-0.461,1.848,0l4.152,4.152l0.309-0.309
		l-0.309,0.309c1.23,1.078,4.77,4.309,5.848,6c1.23,1.848,1.539,3.078,1.848,4.309c0,0.309,0.152,0.617,0.152,0.77
		c0.461,1.383,3.848,5.078,5.383,6.617l1.691-1.691C94.153,75.078,91.844,72.308,91.535,71.691L91.535,71.691z"/>
	<path d="M65.535,87.078H2.305v-72h63.23v41.078h2.309V0H0v100.77h67.848l-0.004-16.613h-2.309L65.535,87.078z M65.535,2.308v10.461
		H2.305V2.308H65.535z M2.305,98.46v-9.078h63.23v9.078H2.305z"/>
	<path d="M21.535,6.308h14.461v2.309H21.535L21.535,6.308z"/>
	<path d="M39.074,6.308h2.309v2.309h-2.309V6.308z"/>
	<path d="M43.691,6.308H46v2.309h-2.309V6.308z"/>
	<path d="M40.152,92.769H27.535c-0.617,0-1.23,0.461-1.23,1.23c0,0.617,0.461,1.23,1.23,1.23h12.617c0.617,0,1.23-0.461,1.23-1.23
		C41.383,93.23,40.77,92.769,40.152,92.769z"/>
</g>
</svg>